<svg version="1.1" id="Layer_1" xmlns="http://www.w3.org/2000/svg" xmlns:xlink="http://www.w3.org/1999/xlink" x="0px" y="0px"
	 width="100%" viewBox="0 0 360 310" enable-background="new 0 0 360 310" xml:space="preserve">
<path fill="#FFFFFF" opacity="1.000000" stroke="none" 
	d="
M212.000000,311.000000 
	C141.333344,311.000000 71.166695,311.000000 1.000028,311.000000 
	C1.000019,207.666702 1.000019,104.333397 1.000009,1.000070 
	C120.999947,1.000046 240.999893,1.000046 360.999878,1.000023 
	C360.999939,104.333260 360.999939,207.666519 360.999969,310.999878 
	C311.500000,311.000000 262.000000,311.000000 212.000000,311.000000 
M314.000122,160.422028 
	C314.270844,156.148041 315.351288,151.736328 314.652283,147.627304 
	C312.929474,137.499954 310.825073,127.390190 308.067596,117.498192 
	C304.644135,105.217026 298.323120,94.239243 290.970306,83.852905 
	C281.796051,70.893654 270.737579,59.642963 257.344025,51.331146 
	C236.032959,38.105827 213.230301,29.003340 187.306335,30.933481 
	C180.964935,31.405624 174.448441,30.295832 168.209946,31.230974 
	C151.694305,33.706654 136.160370,39.232986 121.633316,47.668209 
	C108.600273,55.235920 97.004898,64.656700 87.614227,76.220238 
	C73.144142,94.038490 63.247299,114.140793 59.680248,137.277374 
	C57.176357,153.518082 56.894154,169.631271 60.437233,185.505310 
	C66.620476,213.208038 80.144630,236.757172 101.881187,255.546661 
	C115.040283,266.921631 129.612732,275.439972 145.974915,281.077118 
	C162.369232,286.725372 179.183716,288.111908 196.457947,287.142426 
	C210.650208,286.345947 224.136154,283.041382 236.935486,277.382111 
	C254.731110,269.513794 270.805359,258.857330 282.983948,243.367249 
	C289.557709,235.006012 296.342560,226.506485 301.110474,217.095734 
	C309.898438,199.750244 315.795258,181.352768 314.000122,160.422028 
z"/>
<path fill="#5AE3A6" opacity="1.000000" stroke="none" 
	d="
M314.000122,160.899780 
	C315.795258,181.352768 309.898438,199.750244 301.110474,217.095734 
	C296.342560,226.506485 289.557709,235.006012 282.983948,243.367249 
	C270.805359,258.857330 254.731110,269.513794 236.935486,277.382111 
	C224.136154,283.041382 210.650208,286.345947 196.457947,287.142426 
	C179.183716,288.111908 162.369232,286.725372 145.974915,281.077118 
	C129.612732,275.439972 115.040283,266.921631 101.881187,255.546661 
	C80.144630,236.757172 66.620476,213.208038 60.437233,185.505310 
	C56.894154,169.631271 57.176357,153.518082 59.680248,137.277374 
	C63.247299,114.140793 73.144142,94.038490 87.614227,76.220238 
	C97.004898,64.656700 108.600273,55.235920 121.633316,47.668209 
	C136.160370,39.232986 151.694305,33.706654 168.209946,31.230974 
	C174.448441,30.295832 180.964935,31.405624 187.306335,30.933481 
	C213.230301,29.003340 236.032959,38.105827 257.344025,51.331146 
	C270.737579,59.642963 281.796051,70.893654 290.970306,83.852905 
	C298.323120,94.239243 304.644135,105.217026 308.067596,117.498192 
	C310.825073,127.390190 312.929474,137.499954 314.652283,147.627304 
	C315.351288,151.736328 314.270844,156.148041 314.000122,160.899780 
M181.015381,242.846893 
	C181.010254,251.550400 180.946381,260.254608 181.051147,268.956787 
	C181.071335,270.633545 181.752502,272.302338 183.041672,273.993988 
	C189.919998,273.616486 196.798340,273.238983 204.006714,272.843353 
	C204.006714,257.179016 204.415634,242.027359 203.810120,226.916351 
	C203.559784,220.669540 201.881943,214.211182 199.548004,208.370682 
	C194.130951,194.814957 182.825043,186.080093 172.070007,177.000458 
	C159.847290,166.681824 146.987122,156.999496 135.656036,145.776505 
	C124.065659,134.296692 119.021538,119.264893 118.698624,102.313530 
	C118.791679,91.243935 118.904907,80.174393 118.929581,69.104645 
	C118.931122,68.412384 118.239197,67.718582 117.258995,67.284782 
	C114.386292,69.759186 111.605087,72.350449 108.623230,74.685455 
	C100.587372,80.978088 94.129013,87.809013 95.858978,99.370323 
	C96.662735,104.741875 96.162277,110.340401 95.957542,115.824997 
	C95.373291,131.475861 102.499718,144.132965 113.136497,154.229950 
	C125.392395,165.863922 139.148346,175.918594 152.263199,186.646469 
	C169.752335,200.952530 181.602234,218.189407 181.015381,242.846893 
M168.544266,87.207413 
	C168.358597,87.545616 168.455841,87.803299 168.697830,88.717377 
	C168.484482,89.328064 167.993423,89.991692 168.098282,90.541718 
	C171.017151,105.850670 176.519821,119.686592 189.238480,129.838531 
	C201.470596,139.602127 213.395950,149.750839 225.428497,159.763504 
	C242.686920,174.124756 254.842484,191.150848 254.014313,215.846268 
	C254.009537,225.880325 253.953079,235.914871 254.050659,245.947937 
	C254.067001,247.627655 254.751465,249.300888 255.733124,250.718246 
	C260.820099,245.980225 266.080627,241.412384 270.942932,236.454025 
	C275.384277,231.924942 280.578705,227.414780 277.126007,219.815628 
	C276.954163,219.437363 277.292419,218.856476 277.276825,218.373703 
	C277.002106,209.860779 277.555511,201.215805 276.246246,192.863281 
	C273.417694,174.818024 260.807678,163.234024 247.586380,152.212830 
	C234.557098,141.351685 221.051834,130.942841 208.971390,119.095634 
	C196.937866,107.294434 191.558685,91.909813 191.694214,74.320045 
	C191.788589,64.913933 191.906662,55.507874 191.928543,46.101601 
	C191.930145,45.410900 191.236969,44.718586 189.947922,44.006275 
	C183.078247,44.194141 176.208557,44.382011 168.821854,44.584015 
	C168.821854,59.442333 168.821854,73.231613 168.544266,87.207413 
M241.687881,258.323883 
	C241.791885,245.974518 241.917297,233.625229 241.962296,221.275650 
	C241.966217,220.200867 241.440704,219.124146 241.035919,217.164246 
	C239.742691,210.599014 239.010437,203.860245 237.044022,197.503250 
	C232.391129,182.461411 220.182251,173.507843 208.826309,163.925461 
	C196.606003,153.613693 183.827301,143.848816 172.498138,132.627808 
	C160.921021,121.161201 155.181763,106.418388 155.025894,89.889412 
	C154.896240,76.140526 154.999344,62.389442 154.999344,47.590630 
	C146.795578,51.156857 139.356796,54.390541 132.001648,57.587868 
	C132.001648,72.905899 131.594330,87.740982 132.149338,102.539986 
	C132.501007,111.916740 135.246002,120.876328 140.394257,129.015961 
	C149.245880,143.010834 162.998779,151.719498 175.202255,162.154404 
	C184.949173,170.488739 195.006531,178.708740 203.399261,188.313644 
	C213.360367,199.713440 218.405731,213.631088 218.052734,229.206329 
	C217.787582,240.904800 217.993256,252.614136 218.009811,264.318604 
	C218.011887,265.784119 218.139313,267.249451 218.238190,269.338806 
	C226.503387,266.473206 234.641098,264.589691 241.687881,258.323883 
M119.995445,178.490143 
	C98.288528,161.835770 80.661179,142.784149 81.994934,112.058739 
	C81.108513,113.222534 80.735909,113.551285 80.561615,113.963814 
	C75.013008,127.096184 72.850418,141.011871 70.958359,155.009338 
	C70.339371,159.588654 71.637825,163.288315 74.922089,166.350616 
	C76.359894,167.691238 78.001747,168.811234 79.531349,170.055511 
	C91.407402,179.716217 103.458435,189.172256 115.098030,199.110092 
	C125.568054,208.049362 134.964600,217.858887 140.224136,231.132568 
	C144.157822,241.060181 145.445953,251.135681 145.071579,261.637268 
	C145.012711,263.288879 145.504196,266.152527 146.411011,266.456299 
	C153.280731,268.757660 160.317505,270.560333 167.992783,272.712158 
	C167.992783,261.134186 168.673477,250.775986 167.823944,240.544846 
	C166.711929,227.152451 162.287201,214.698563 151.872543,205.462830 
	C141.641281,196.389771 130.980270,187.801300 119.995445,178.490143 
M210.895767,46.418861 
	C209.025085,46.327663 207.154404,46.236469 205.004089,46.131638 
	C205.004089,56.290092 204.339340,65.836929 205.219116,75.239250 
	C205.895523,82.468132 207.625534,89.898254 210.487335,96.550423 
	C214.477341,105.825089 220.999420,113.486191 229.162766,119.816689 
	C240.875214,128.899414 252.165695,138.525681 263.653168,147.899261 
	C277.225891,158.974365 286.606598,172.683777 289.975037,190.088806 
	C290.786987,194.284317 291.082123,198.579834 291.614929,202.829346 
	C298.209808,188.012436 301.668060,172.762543 300.916138,156.743210 
	C300.848022,155.292068 299.986542,153.510681 298.904968,152.535248 
	C292.658173,146.901581 286.304749,141.380173 279.855713,135.978012 
	C267.246094,125.415283 253.164795,116.526848 242.858719,103.353966 
	C234.122452,92.187584 228.449097,79.705231 228.082520,65.402733 
	C227.681717,49.764992 227.963409,49.757717 212.145828,46.915596 
	C211.981918,46.886143 211.815903,46.868347 210.895767,46.418861 
M106.490990,241.011032 
	C114.196426,247.242142 121.901863,253.473236 129.607300,259.704346 
	C132.259506,242.387665 126.137314,228.625854 114.971474,217.886307 
	C102.700119,206.083435 88.857201,195.914505 75.699013,185.033676 
	C79.970284,206.970276 90.111618,225.344223 106.490990,241.011032 
M259.322632,70.088875 
	C253.892075,66.277649 248.461533,62.466423 242.163818,58.046616 
	C241.255188,73.765739 246.039764,86.278419 255.469131,96.722427 
	C261.527100,103.432281 268.677032,109.206848 275.651917,115.023659 
	C282.288055,120.557961 289.332611,125.602554 296.586182,131.160187 
	C296.752533,130.017990 297.161102,129.154739 296.925446,128.537521 
	C293.775391,120.287567 291.136078,111.769554 287.182312,103.915985 
	C280.606598,90.854187 270.856445,80.125458 259.322632,70.088875 
z"/>
<path fill="#FFFFFF" opacity="1.000000" stroke="none" 
	d="
M241.162979,258.951630 
	C234.641098,264.589691 226.503387,266.473206 218.238190,269.338806 
	C218.139313,267.249451 218.011887,265.784119 218.009811,264.318604 
	C217.993256,252.614136 217.787582,240.904800 218.052734,229.206329 
	C218.405731,213.631088 213.360367,199.713440 203.399261,188.313644 
	C195.006531,178.708740 184.949173,170.488739 175.202255,162.154404 
	C162.998779,151.719498 149.245880,143.010834 140.394257,129.015961 
	C135.246002,120.876328 132.501007,111.916740 132.149338,102.539986 
	C131.594330,87.740982 132.001648,72.905899 132.001648,57.587868 
	C139.356796,54.390541 146.795578,51.156857 154.999344,47.590630 
	C154.999344,62.389442 154.896240,76.140526 155.025894,89.889412 
	C155.181763,106.418388 160.921021,121.161201 172.498138,132.627808 
	C183.827301,143.848816 196.606003,153.613693 208.826309,163.925461 
	C220.182251,173.507843 232.391129,182.461411 237.044022,197.503250 
	C239.010437,203.860245 239.742691,210.599014 241.035004,218.067261 
	C241.077042,232.297409 241.120010,245.624512 241.162979,258.951630 
z"/>
<path fill="#FFFFFF" opacity="1.000000" stroke="none" 
	d="
M191.176544,74.952652 
	C191.558685,91.909813 196.937866,107.294434 208.971390,119.095634 
	C221.051834,130.942841 234.557098,141.351685 247.586380,152.212830 
	C260.807678,163.234024 273.417694,174.818024 276.246246,192.863281 
	C277.555511,201.215805 277.002106,209.860779 277.276825,218.373703 
	C277.292419,218.856476 276.954163,219.437363 277.126007,219.815628 
	C280.578705,227.414780 275.384277,231.924942 270.942932,236.454025 
	C266.080627,241.412384 260.820099,245.980225 255.379456,250.382797 
	C255.016846,239.853806 255.047363,229.659912 254.956314,219.467102 
	C254.942688,217.939911 254.359497,216.417801 254.039764,214.893326 
	C254.842484,191.150848 242.686920,174.124756 225.428497,159.763504 
	C213.395950,149.750839 201.470596,139.602127 189.238480,129.838531 
	C176.519821,119.686592 171.017151,105.850670 168.098282,90.541718 
	C167.993423,89.991692 168.484482,89.328064 168.810516,88.108345 
	C168.923203,87.499313 168.821854,87.020897 168.821854,87.020897 
	C168.821854,73.231613 168.821854,59.442333 168.821854,44.584015 
	C176.208557,44.382011 183.078247,44.194141 190.458694,44.481152 
	C191.038483,54.954903 191.107513,64.953781 191.176544,74.952652 
z"/>
<path fill="#FFFFFF" opacity="1.000000" stroke="none" 
	d="
M118.183815,102.946793 
	C119.021538,119.264893 124.065659,134.296692 135.656036,145.776505 
	C146.987122,156.999496 159.847290,166.681824 172.070007,177.000458 
	C182.825043,186.080093 194.130951,194.814957 199.548004,208.370682 
	C201.881943,214.211182 203.559784,220.669540 203.810120,226.916351 
	C204.415634,242.027359 204.006714,257.179016 204.006714,272.843353 
	C196.798340,273.238983 189.919998,273.616486 182.534607,273.519745 
	C182.018433,264.676605 182.069336,256.306885 181.956802,247.939362 
	C181.929672,245.920563 181.361694,243.909027 181.042450,241.894150 
	C181.602234,218.189407 169.752335,200.952530 152.263199,186.646469 
	C139.148346,175.918594 125.392395,165.863922 113.136497,154.229950 
	C102.499718,144.132965 95.373291,131.475861 95.957542,115.824997 
	C96.162277,110.340401 96.662735,104.741875 95.858978,99.370323 
	C94.129013,87.809013 100.587372,80.978088 108.623230,74.685455 
	C111.605087,72.350449 114.386292,69.759186 117.615067,67.619812 
	C118.042030,79.618828 118.112923,91.282806 118.183815,102.946793 
z"/>
<path fill="#FFFFFF" opacity="1.000000" stroke="none" 
	d="
M120.251640,178.745148 
	C130.980270,187.801300 141.641281,196.389771 151.872543,205.462830 
	C162.287201,214.698563 166.711929,227.152451 167.823944,240.544846 
	C168.673477,250.775986 167.992783,261.134186 167.992783,272.712158 
	C160.317505,270.560333 153.280731,268.757660 146.411011,266.456299 
	C145.504196,266.152527 145.012711,263.288879 145.071579,261.637268 
	C145.445953,251.135681 144.157822,241.060181 140.224136,231.132568 
	C134.964600,217.858887 125.568054,208.049362 115.098030,199.110092 
	C103.458435,189.172256 91.407402,179.716217 79.531349,170.055511 
	C78.001747,168.811234 76.359894,167.691238 74.922089,166.350616 
	C71.637825,163.288315 70.339371,159.588654 70.958359,155.009338 
	C72.850418,141.011871 75.013008,127.096184 80.561615,113.963814 
	C80.735909,113.551285 81.108513,113.222534 81.994934,112.058739 
	C80.661179,142.784149 98.288528,161.835770 120.251640,178.745148 
z"/>
<path fill="#FFFFFF" opacity="1.000000" stroke="none" 
	d="
M211.273315,46.631985 
	C211.815903,46.868347 211.981918,46.886143 212.145828,46.915596 
	C227.963409,49.757717 227.681717,49.764992 228.082520,65.402733 
	C228.449097,79.705231 234.122452,92.187584 242.858719,103.353966 
	C253.164795,116.526848 267.246094,125.415283 279.855713,135.978012 
	C286.304749,141.380173 292.658173,146.901581 298.904968,152.535248 
	C299.986542,153.510681 300.848022,155.292068 300.916138,156.743210 
	C301.668060,172.762543 298.209808,188.012436 291.614929,202.829346 
	C291.082123,198.579834 290.786987,194.284317 289.975037,190.088806 
	C286.606598,172.683777 277.225891,158.974365 263.653168,147.899261 
	C252.165695,138.525681 240.875214,128.899414 229.162766,119.816689 
	C220.999420,113.486191 214.477341,105.825089 210.487335,96.550423 
	C207.625534,89.898254 205.895523,82.468132 205.219116,75.239250 
	C204.339340,65.836929 205.004089,56.290092 205.004089,46.131638 
	C207.154404,46.236469 209.025085,46.327663 211.273315,46.631985 
z"/>
<path fill="#FFFFFF" opacity="1.000000" stroke="none" 
	d="
M106.240570,240.761383 
	C90.111618,225.344223 79.970284,206.970276 75.699013,185.033676 
	C88.857201,195.914505 102.700119,206.083435 114.971474,217.886307 
	C126.137314,228.625854 132.259506,242.387665 129.607300,259.704346 
	C121.901863,253.473236 114.196426,247.242142 106.240570,240.761383 
z"/>
<path fill="#FFFFFF" opacity="1.000000" stroke="none" 
	d="
M259.626465,70.282654 
	C270.856445,80.125458 280.606598,90.854187 287.182312,103.915985 
	C291.136078,111.769554 293.775391,120.287567 296.925446,128.537521 
	C297.161102,129.154739 296.752533,130.017990 296.586182,131.160187 
	C289.332611,125.602554 282.288055,120.557961 275.651917,115.023659 
	C268.677032,109.206848 261.527100,103.432281 255.469131,96.722427 
	C246.039764,86.278419 241.255188,73.765739 242.163818,58.046616 
	C248.461533,62.466423 253.892075,66.277649 259.626465,70.282654 
z"/>
<path fill="#5DDAA2" opacity="1.000000" stroke="none" 
	d="
M241.425430,258.637756 
	C241.120010,245.624512 241.077042,232.297409 241.097595,218.509308 
	C241.440704,219.124146 241.966217,220.200867 241.962296,221.275650 
	C241.917297,233.625229 241.791885,245.974518 241.425430,258.637756 
z"/>
<path fill="#60D9A3" opacity="1.000000" stroke="none" 
	d="
M118.441223,102.630157 
	C118.112923,91.282806 118.042030,79.618828 117.920517,67.490173 
	C118.239197,67.718582 118.931122,68.412384 118.929581,69.104645 
	C118.904907,80.174393 118.791679,91.243935 118.441223,102.630157 
z"/>
<path fill="#5DDAA2" opacity="1.000000" stroke="none" 
	d="
M254.027039,215.369797 
	C254.359497,216.417801 254.942688,217.939911 254.956314,219.467102 
	C255.047363,229.659912 255.016846,239.853806 255.076477,250.512238 
	C254.751465,249.300888 254.067001,247.627655 254.050659,245.947937 
	C253.953079,235.914871 254.009537,225.880325 254.027039,215.369797 
z"/>
<path fill="#60D8A2" opacity="1.000000" stroke="none" 
	d="
M181.028915,242.370514 
	C181.361694,243.909027 181.929672,245.920563 181.956802,247.939362 
	C182.069336,256.306885 182.018433,264.676605 182.078156,273.510162 
	C181.752502,272.302338 181.071335,270.633545 181.051147,268.956787 
	C180.946381,260.254608 181.010254,251.550400 181.028915,242.370514 
z"/>
<path fill="#62DAA4" opacity="1.000000" stroke="none" 
	d="
M191.435379,74.636353 
	C191.107513,64.953781 191.038483,54.954903 190.918137,44.491524 
	C191.236969,44.718586 191.930145,45.410900 191.928543,46.101601 
	C191.906662,55.507874 191.788589,64.913933 191.435379,74.636353 
z"/>
<path fill="#63E0A8" opacity="1.000000" stroke="none" 
	d="
M168.683060,87.114151 
	C168.821854,87.020897 168.923203,87.499313 168.879608,87.739883 
	C168.455841,87.803299 168.358597,87.545616 168.683060,87.114151 
z"/>
</svg>